<svg version="1.1" viewBox="0 186.66 258.84644194756555 257.42" xmlns="http://www.w3.org/2000/svg"
     style="max-height: 500px" width="258.84644194756555" height="257.42">
    <path class="accent" fill-rule="evenodd" fill="#fbb304" stroke="none"
          d="M 207.305 204.104 C 197.347 205.377, 194.713 207.465, 164.267 238.227 C 148.445 254.212, 134.262 268.425, 132.750 269.811 C 131.238 271.197, 130 272.754, 130 273.271 C 130 273.789, 136.141 280.451, 143.647 288.077 C 156.019 300.647, 157.163 302.108, 155.901 303.721 C 155.135 304.699, 165.252 294.587, 178.384 281.250 C 191.516 267.913, 202.652 257, 203.130 257 C 203.615 257, 204 288.414, 204 327.980 C 204 405.698, 203.860 403.744, 209.900 410.339 C 214.167 414.999, 217.566 416.261, 224.636 415.810 C 232.799 415.291, 238.422 411.623, 242 404.487 L 244.500 399.500 244.773 318.114 C 245.011 247.043, 244.848 235.956, 243.486 230.638 C 238.822 212.434, 224.473 201.911, 207.305 204.104 M 11.272 245 C 11.272 247.475, 11.467 248.488, 11.706 247.250 C 11.944 246.012, 11.944 243.988, 11.706 242.750 C 11.467 241.512, 11.272 242.525, 11.272 245 M 360.762 299.707 C 362.006 299.946, 363.806 299.937, 364.762 299.687 C 365.718 299.437, 364.700 299.241, 362.500 299.252 C 360.300 299.263, 359.518 299.468, 360.762 299.707 M 393.250 299.728 C 395.313 299.944, 398.688 299.944, 400.750 299.728 C 402.813 299.513, 401.125 299.336, 397 299.336 C 392.875 299.336, 391.188 299.513, 393.250 299.728 M 456.250 299.728 C 458.313 299.944, 461.688 299.944, 463.750 299.728 C 465.813 299.513, 464.125 299.336, 460 299.336 C 455.875 299.336, 454.188 299.513, 456.250 299.728 M 367.343 310.500 C 367.346 314.900, 367.522 316.576, 367.733 314.224 C 367.945 311.872, 367.942 308.272, 367.727 306.224 C 367.512 304.176, 367.339 306.100, 367.343 310.500 M 344.360 319 C 344.360 324.225, 344.529 326.363, 344.735 323.750 C 344.941 321.137, 344.941 316.863, 344.735 314.250 C 344.529 311.637, 344.360 313.775, 344.360 319 M 367.286 324.500 C 367.294 327.250, 367.488 328.256, 367.718 326.736 C 367.947 325.216, 367.941 322.966, 367.704 321.736 C 367.467 320.506, 367.279 321.750, 367.286 324.500"/>
    <path class="primary" fill-rule="evenodd" fill="#244cdc" stroke="none"
          d="M 33.576 205.423 C 26.312 208.483, 18.849 215.584, 15.312 222.802 C 11.794 229.983, 10.779 246.640, 11.342 288 C 11.815 322.700, 12.947 331.292, 19.017 346.207 C 29.335 371.561, 52.752 395.762, 80.652 409.904 C 98.947 419.178, 114.818 420.610, 122.691 413.698 C 133.771 403.970, 129.405 387.826, 114.112 381.972 C 99.757 376.478, 95.035 374.243, 88.375 369.788 C 71.146 358.264, 58.408 338.570, 53.895 316.475 C 52.221 308.284, 52.003 303.464, 52.234 279.773 L 52.500 252.500 62.440 263 C 67.907 268.775, 80.165 281.452, 89.680 291.171 C 110.345 312.281, 113.325 314.161, 127.168 314.822 C 138.107 315.345, 145.306 312.996, 152.604 306.521 L 157.500 302.177 144.014 288.339 C 89.783 232.692, 65.460 208.759, 60.616 206.278 C 52.996 202.377, 41.658 202.018, 33.576 205.423 M 370.635 262.073 C 368.161 264.019, 368 264.659, 368 272.573 L 368 281 361.952 281 C 356.697 281, 355.583 281.347, 353.452 283.646 C 350.178 287.178, 350.216 291.914, 353.548 295.875 C 355.754 298.497, 356.862 298.943, 361.798 299.202 L 367.500 299.500 367.715 316.421 C 367.965 336.131, 369.016 342.341, 373.042 347.900 C 382.478 360.925, 411 360.606, 411 347.474 C 411 345.685, 410.150 343.172, 409.111 341.888 C 407.519 339.923, 406.412 339.591, 402.082 339.779 C 399.255 339.902, 395.410 339.363, 393.538 338.580 C 387.815 336.189, 387 333.255, 387 315.050 L 387 299 396.545 299 C 405.467 299, 406.259 298.832, 408.664 296.427 C 410.799 294.292, 411.138 293.236, 410.651 290.236 C 409.636 283.984, 407.246 282.570, 396.727 282 L 387.500 281.500 387 272.658 C 386.561 264.897, 386.212 263.584, 384.139 261.908 C 380.890 259.282, 374.078 259.365, 370.635 262.073 M 433.455 262.455 C 431.255 264.654, 431 265.746, 431 272.955 L 431 281 425.455 281 C 420.900 281, 419.470 281.439, 417.455 283.455 C 414.566 286.343, 414.121 292.300, 416.537 295.749 C 418.326 298.304, 424.835 300.331, 428.386 299.439 L 430.848 298.821 431.174 318.661 C 431.468 336.570, 431.713 338.962, 433.693 343.249 C 437.333 351.129, 442.743 355.062, 452.616 357.004 C 464.553 359.353, 475 354.991, 475 347.659 C 475 341.626, 472.641 339.957, 463.772 339.713 C 456.804 339.521, 455.771 339.227, 453.272 336.729 L 450.500 333.959 450.500 316.729 L 450.500 299.500 460.205 299.214 C 469.303 298.947, 470.039 298.766, 471.955 296.329 C 475.351 292.013, 474.363 285.756, 469.923 283.460 C 468.093 282.514, 464.089 282, 458.550 282 L 450 282 450 273.455 C 450 265.715, 449.769 264.678, 447.545 262.455 C 444.077 258.987, 436.923 258.987, 433.455 262.455 M 303.500 279.638 C 291.425 282.214, 286.900 284.331, 280.798 290.262 C 261.010 309.494, 265.083 342.761, 288.663 354.495 C 293.607 356.955, 295.724 357.406, 302.500 357.439 C 311.042 357.482, 315.347 355.945, 321.728 350.576 C 324.840 347.956, 326 348.097, 326 351.094 C 326 352.063, 327.186 353.788, 328.635 354.927 C 332.324 357.829, 338.104 357.676, 341.694 354.582 C 344.461 352.198, 344.500 352.008, 344.500 340.832 C 344.500 334.599, 344.250 323.425, 343.944 316 C 343.450 303.984, 343.099 301.938, 340.750 297.392 C 337.136 290.399, 329.486 283.718, 322.818 281.733 C 317.167 280.051, 306.825 278.929, 303.500 279.638 M 507.453 282.798 C 497.260 286.409, 489.572 293.175, 484.313 303.160 C 481.746 308.033, 481.500 309.419, 481.500 319.021 C 481.500 328.886, 481.704 329.957, 484.774 336.193 C 488.857 344.486, 496.748 351.966, 504.753 355.130 C 512.997 358.389, 529.962 358.406, 538.157 355.164 C 549.032 350.862, 553.109 346.556, 551.685 340.880 C 550.481 336.083, 542.623 333.840, 538.443 337.100 C 533.504 340.952, 515.294 341.108, 508.865 337.353 C 505.743 335.530, 501 329.800, 501 327.852 C 501 327.383, 511.835 327, 525.077 327 L 549.154 327 552.077 324.077 C 554.688 321.466, 555 320.482, 555 314.866 C 555 301.869, 548.032 290.602, 536.474 284.913 C 528.229 280.854, 515.549 279.930, 507.453 282.798 M 592.929 282.310 C 582.532 285.244, 574.104 292.570, 569.125 303 C 566.781 307.912, 566.501 309.676, 566.512 319.500 C 566.523 329.850, 566.715 330.892, 569.754 337.127 C 574.921 347.726, 584.056 354.487, 596.753 357.110 C 607.846 359.401, 621.399 355.232, 630.005 346.879 C 638.614 338.525, 642.876 323.195, 640.012 310.890 C 635.844 292.982, 622.998 281.976, 605.500 281.319 C 601.019 281.151, 595.489 281.587, 592.929 282.310 M 299.491 298.803 C 290.320 303.111, 285.637 313.418, 287.950 324.204 C 290.143 334.427, 296.282 339.928, 305.554 339.978 C 311.832 340.012, 319.502 335.707, 322.609 330.404 C 328.298 320.696, 326.002 305.677, 318.020 300.395 C 312.819 296.952, 304.883 296.271, 299.491 298.803 M 511.979 298.331 C 505.661 301.261, 501.019 306.515, 501.007 310.750 C 501 312.998, 501.015 313, 518.531 313 C 532.013 313, 536.178 312.699, 536.563 311.697 C 537.233 309.950, 534.621 303.872, 532.296 301.768 C 527.507 297.434, 517.548 295.749, 511.979 298.331 M 597.685 298.961 C 588.779 301.811, 584.412 309.537, 585.232 320.996 C 586.075 332.780, 591.367 338.770, 601.767 339.713 C 613.378 340.765, 620.841 333.458, 621.719 320.175 C 622.106 314.313, 621.815 312.832, 619.330 308.016 C 617.610 304.683, 615.263 301.826, 613.347 300.731 C 609.610 298.596, 601.641 297.695, 597.685 298.961"/>
</svg>