<svg xmlns="http://www.w3.org/2000/svg" viewBox="0 0 368 323">
    <path fill="currentColor" fill-rule="evenodd"
          d="M50 159v122h20V181l1-99 10 9 110 96 43-38 12-10v125l9 8 10 8 1-79v-79l10-9a3859 3859 0 0 0 34-30v100l1 99h20V37l-10 8a6282 6282 0 0 0-68 60 1303 1303 0 0 0-47-40c-16-15-14-15-42 10l-22 20 7 6c3 4 7 7 8 7 1 1 2 1 19-16 12-11 15-14 16-12a852 852 0 0 0 43 40l-6 6a5677 5677 0 0 0-40 32 460 460 0 0 1-33-29 17354 17354 0 0 1-91-79L50 37v122m64 55c0 65 0 67 2 66l10-9 9-7V164l-10-9-10-9-1 68"/>
</svg>

